<svg width="44" height="44" viewBox="0 0 44 44" fill="none" xmlns="http://www.w3.org/2000/svg">
<path d="M20.0746 35.7868C20.3373 36.0347 20.685 36.1725 21.0462 36.1718C21.4061 36.1749 21.7512 36.0289 21.9996 35.7684C22.2616 35.5131 22.4094 35.1627 22.4094 34.7968C22.4094 34.4309 22.2616 34.0805 21.9996 33.8251L11.5495 23.375H35.7866C36.546 23.375 37.1616 22.7594 37.1616 22C37.1616 21.2406 36.546 20.625 35.7866 20.625H11.5454L22.0179 10.1201C22.28 9.86475 22.4278 9.51436 22.4278 9.14845C22.4278 8.78254 22.28 8.43214 22.0179 8.17678C21.4811 7.64062 20.6114 7.64062 20.0746 8.17678L7.24123 21.0101C6.70507 21.5469 6.70507 22.4166 7.24123 22.9534L20.0746 35.7868Z" fill="#F2F4F7"/>
</svg>
