<svg width="888" height="709" viewBox="0 0 888 709" fill="none" xmlns="http://www.w3.org/2000/svg">
  <g clip-path="url(#clip0_10_737)">
    <ellipse cx="443.5" cy="622.5" rx="432.5" ry="82.5" fill="url(#paint0_radial_10_550)" style="mix-blend-mode:multiply" />
    <path d="M605.843 170.477C598.207 193.127 587.277 223.777 583.072 246.746C574.586 293.169 588.446 306.21 573.963 327.19C564.338 350.675 574.236 361.058 578.517 379.549C582.373 396.202 598.101 465.215 599.012 474.414C600.833 492.935 596.795 514.765 593.698 533.225C588.613 522.508 591.345 504.23 593.698 491.872C584.726 443.506 576.24 390.039 550.448 347.684C549.446 332.093 543.677 328.875 545.894 310.885C548.323 291.226 566.221 248.31 573.219 227.405C580.43 205.894 588.324 184.519 595.232 162.902C598.784 163.418 605.782 166.788 605.858 170.492L605.843 170.477Z" fill="#EEB190" />
    <path d="M579.292 24.7856C562.623 119.864 547.564 215.489 519.342 307.849C523.654 268.667 524.291 229.197 529.21 190.227C532.2 166.591 536.982 142.984 539.836 119.272C543.525 88.5304 543.859 57.288 548.945 26.6833C556.733 25.1652 569.06 28.1103 569.439 24.7856C572.718 24.7856 576.028 24.7856 579.307 24.7856H579.292Z" fill="#EEB190" />
    <path d="M569.424 24.7856C569.045 28.1102 556.718 25.1651 548.93 26.6832C543.844 57.2879 543.51 88.5303 539.821 119.272C536.982 142.984 532.185 166.591 529.195 190.227C537.301 135.925 540.823 81.122 548.171 26.6832H526.158C526.052 79.8013 527.024 170.355 518.568 220.195C512.89 253.668 499.167 266.754 487.447 297.223C487.538 296.691 485.504 292.182 488.965 286.975C489.982 277.958 486.081 279.431 486.688 276.349C489.345 274.633 497.967 262.489 491.622 263.825C490.772 264.007 489.466 267.726 485.929 266.861C497.102 248.097 501.823 249.919 505.664 211.845C510.917 159.623 504.252 80.9095 505.664 25.9241C526.781 23.7684 548.216 24.8766 569.409 24.7856H569.424Z" fill="#EEB190" />
    <path d="M623.301 24.7855C611.9 86.4657 588.673 145.398 574.737 206.532C572.733 215.337 568.802 233.569 573.219 227.405C566.221 248.294 548.323 291.226 545.894 310.885C543.085 312.358 541.4 322.772 538.683 329.103C537.878 328.966 538.182 314.468 538.303 312.783C542.235 254.625 596.37 96.1966 603.566 24.7855C610.124 24.8159 616.728 24.7248 623.301 24.7855Z" fill="#F9D2B7" />
    <path d="M470.004 483.144C457.222 529.946 469.093 519.73 476.836 531.328C481.451 538.25 480.191 547.738 484.426 554.858C483.91 557.469 467.894 556.999 473.42 561.31C474.042 561.796 486.916 560.506 488.98 560.172C482.65 547.799 490.362 507.509 507.197 517.301C517.308 529.977 512.389 550.198 514.029 554.858C514.135 555.162 519.084 558.244 519.342 558.653C519.828 559.413 518.067 560.217 518.583 560.931C521.726 565.333 526.933 568.521 529.969 573.455C531.745 576.324 532.595 578.753 532.246 581.804C531.715 585.569 530.53 581.759 530.348 581.804C527.798 582.503 529.62 584.218 528.071 584.841C527.768 584.962 528.511 582.639 522.378 586.359C521.467 586.905 520.223 585.706 519.342 588.256C518.674 590.215 518.72 600.173 515.547 589.015C513.452 581.622 515.759 569.417 514.788 561.69C513.831 554.069 510.993 557.925 509.475 551.063C508.412 546.266 508.624 505.126 495.812 529.81C495.66 530.098 495.872 533.787 495.812 533.984C495.781 534.06 494.476 533.711 494.294 534.364C494.066 535.153 494.779 541.211 492.016 550.304C492.108 550.942 493.519 550.608 493.535 550.684C496.859 565.925 507.501 576.825 505.679 594.693L501.884 595.452C502.218 586.784 493.914 574.335 496.95 584.066C478.323 560.445 461.989 594.86 476.836 600.006C482.377 601.919 490.908 597.365 498.848 598.488C499.607 598.595 499.698 599.278 500.366 599.247C500.123 599.9 500.624 601.464 500.366 601.904C495.523 610.026 474.801 610.542 464.691 599.627C460.106 594.678 453.335 578.829 454.823 573.819C455.051 573.06 456.888 573.819 457.1 573.06C459.909 563.177 465.222 554.054 463.932 543.457C463.127 536.838 452.819 518.804 454.823 505.52C455.263 502.56 465.252 481.625 470.004 483.128V483.144Z" fill="#EEB190" />
    <path d="M479.872 319.979C480.707 320.055 482.483 319.645 482.908 320.358C483.895 322.028 480.449 341.809 481.39 359.054C481.769 366.144 484.806 378.759 485.185 384.862C487.644 424.545 485.686 426.534 476.077 463.408C475.91 464.015 477.109 464.273 476.836 465.306C476.593 466.232 472.828 472.82 470.004 483.143C465.253 481.64 455.279 502.575 454.823 505.535C452.819 518.819 463.112 536.854 463.932 543.472C465.237 554.069 459.909 563.192 457.1 573.075C456.888 573.834 458.087 573.075 457.859 573.834C456.372 578.829 461.624 593.16 466.209 598.124C476.319 609.039 495.523 610.041 500.366 601.919C500.624 601.479 500.123 599.915 500.366 599.262C500.503 598.883 501.672 601.205 501.884 595.467L505.679 594.708C503.083 620.136 467.317 620.303 457.116 592.051C446.049 561.401 468.471 558.122 451.802 520.716C448.796 496.062 470.368 449.472 473.815 413.706C477.458 375.845 464.084 349.187 476.092 320.738C477.564 320.692 478.035 319.796 479.887 319.979H479.872Z" fill="#EEB190" />
    <path d="M605.843 170.477C605.767 166.773 598.769 163.403 595.217 162.887C608.895 119.985 624.318 68.7345 631.636 24.7705C639.089 24.8919 646.558 24.6794 654.027 24.7705C643.826 74.6854 622.117 122.187 605.843 170.477Z" fill="#F9D2B7" />
    <path d="M631.651 24.7855C624.333 68.7494 608.91 120 595.232 162.902C588.339 184.519 580.43 205.894 573.219 227.405C568.802 233.584 572.733 215.337 574.737 206.532C588.673 145.398 611.9 86.4656 623.301 24.7855C626.079 24.8158 628.873 24.7399 631.651 24.7855Z" fill="#F9D2B7" />
    <path d="M522.378 586.358C521.27 595.118 524.033 601.312 533.005 597.365C535.206 588.818 540.322 589.637 532.246 581.804C532.595 578.753 531.745 576.339 529.969 573.455C531.138 573.576 531.517 573.591 531.487 572.316C531.381 568.035 527.176 554.843 526.933 551.063C526.538 545.021 526.401 542.561 529.969 537.779C535.07 545.507 533.233 555.374 535.282 563.967C535.464 564.71 537.377 563.967 537.559 564.726C540.216 575.899 535.95 578.859 545.909 586.358C549.37 588.97 549.431 594.708 558.813 582.563C555.017 593.919 549.294 593.736 538.698 590.154C538.941 601.767 525.84 605.836 516.685 600.78C502.385 592.886 509.717 562.388 501.884 549.939C506.089 537.901 501.52 527.547 495.812 533.999C495.872 533.802 495.66 530.113 495.812 529.825C508.624 505.14 508.412 546.281 509.475 551.078C510.993 557.94 513.831 554.084 514.788 561.705C515.759 569.432 513.452 581.637 515.547 589.03C518.72 600.188 518.674 590.23 519.342 588.271C520.223 585.721 521.467 586.92 522.378 586.374V586.358Z" fill="#DF997C" />
    <path d="M575.496 518.06C576.134 520.807 579.276 524.481 580.051 527.548C580.582 529.627 578.229 530.068 578.533 531.343C578.942 533.028 582.965 541.408 583.087 541.97C584.286 547.647 575.314 542.546 577.014 548.801C578.867 555.617 588.203 550.107 589.918 545.765C590.966 543.108 588.309 536.11 592.195 543.867C591.391 547.693 594.564 557.044 577.774 557.91C576.529 559.671 583.436 584.977 558.418 579.542C557.188 581 558.934 582.153 558.797 582.579C549.416 594.723 549.355 588.985 545.894 586.374C546.41 586.48 546.82 586.07 546.653 585.615C564.202 584.598 554.562 574.047 554.243 572.331C553.757 569.766 553.955 564.21 553.484 562.084C557.75 562.95 552.74 534.622 548.171 537.036C549.992 527.73 555.458 533.104 555.761 533.62C555.928 533.893 554.456 534.485 556.52 540.072C560.437 550.668 562.152 554.615 559.556 566.259C563.094 563.359 563.837 565.12 564.111 565.12C559.465 576.339 571.64 573.257 572.46 569.295C572.642 568.415 571.185 566.927 570.942 565.88C570.912 565.758 571.337 563.8 571.701 563.602C574.191 564.498 577.273 560.263 572.46 559.428C574.51 551.063 569.834 542.152 568.665 534C572.187 535.427 572.46 540.725 572.84 543.867C575.299 541.863 572.809 522.128 569.424 523.373C569.561 523.084 569.712 521.172 570.563 520.337C570.76 520.139 571.959 521.126 575.496 518.06Z" fill="#DF997C" />
    <path d="M487.462 297.223C486.308 303.614 482.695 313.876 479.872 319.994C478.02 319.812 477.549 320.707 476.077 320.753C482.65 292.152 468.532 296.114 485.944 266.876C489.481 267.741 490.787 264.022 491.637 263.84C497.983 262.504 489.36 274.649 486.703 276.364C486.096 279.446 489.997 277.973 488.98 286.991C485.519 292.198 487.553 296.691 487.462 297.238V297.223Z" fill="#DF997C" />
    <path d="M501.884 549.925C499.136 548.407 494.749 547.238 493.535 550.684C493.519 550.608 492.108 550.942 492.016 550.304C494.779 541.211 494.066 535.154 494.294 534.364C494.476 533.711 495.781 534.061 495.812 533.985C501.52 527.518 506.089 537.886 501.884 549.925Z" fill="#C27164" />
    <path d="M529.195 190.212C524.276 229.197 523.638 268.667 519.327 307.834C517.824 307.925 518.963 310.536 518.568 312.388C518.522 312.844 517.687 315.682 517.05 321.497C517.035 321.694 516.807 320.753 516.291 325.292C516.276 325.489 516.048 324.594 515.532 329.087C512.435 355.791 508.655 382.236 507.182 409.152C503.083 421.16 494.278 430.481 490.483 437.236C485.504 446.102 480.57 462.406 476.061 463.423C485.671 426.549 487.629 424.56 485.17 384.877C484.79 378.79 481.754 366.174 481.375 359.07C480.433 341.809 483.879 322.028 482.893 320.373C482.468 319.66 480.691 320.07 479.857 319.994C482.68 313.891 486.278 303.629 487.447 297.223C499.151 266.754 512.89 253.668 518.568 220.194C527.024 170.355 526.052 79.8012 526.158 26.6831H548.171C540.823 81.1219 537.301 135.91 529.195 190.227V190.212Z" fill="url(#paint1_linear_10_737)" />
    <path d="M533.749 534.743C531.775 534.683 530.91 536.489 529.954 537.78C526.386 542.546 526.523 545.006 526.917 551.063C527.16 554.843 531.365 568.035 531.472 572.316C531.502 573.576 531.123 573.576 529.954 573.455C526.917 568.521 521.71 565.348 518.568 560.931C518.052 560.217 519.813 559.412 519.327 558.653C519.069 558.243 514.12 555.162 514.014 554.858C512.374 550.182 517.293 529.961 507.182 517.3C506.059 513.293 505.603 498.157 509.839 496.806C510.051 496.746 511.16 498.765 512.116 498.324C513.103 497.869 519.934 491.311 532.61 492.252C533.051 492.282 534.007 497.398 539.442 493.011C543.844 504.351 545.803 519.016 532.61 523.373C533.293 533.301 522.697 531.358 522.363 542.729C521.832 560.961 525.323 541.818 527.676 538.174C528.041 537.597 532.261 533.286 532.61 533.24C534.28 532.998 533.658 534.713 533.749 534.759V534.743Z" fill="#F9D2B7" />
    <path d="M575.496 518.06C571.974 521.111 570.76 520.139 570.563 520.337C569.728 521.172 569.561 523.084 569.424 523.373C567.223 527.715 568.027 529.536 568.665 534C569.834 542.152 574.51 551.063 572.46 559.428C577.273 560.263 574.191 564.498 571.701 563.602C565.781 561.447 560.968 544.368 559.556 538.554C557.841 531.495 555.473 527.897 557.279 518.439C558.949 509.725 569.637 493.892 572.46 496.427C573.432 503.668 573.857 510.925 575.496 518.06Z" fill="#F9D2B7" />
    <path d="M533.749 534.744C539.199 537.522 541.263 549.879 543.616 556.377C544.709 559.398 548.034 562.267 548.93 565.485C553.241 581.061 541.157 570.039 546.653 585.6C546.82 586.055 546.41 586.465 545.894 586.359C535.935 578.859 540.216 575.899 537.544 564.726C537.362 563.982 535.449 564.726 535.267 563.967C533.218 555.375 535.054 545.507 529.954 537.78C530.91 536.489 531.775 534.683 533.749 534.744Z" fill="#EEB190" />
    <path d="M559.556 538.539C560.968 544.353 565.765 561.431 571.701 563.587C571.337 563.784 570.912 565.743 570.942 565.864C568.619 564.832 566.479 565.166 564.111 565.105C563.853 565.105 563.094 563.344 559.556 566.244C562.152 554.615 560.437 550.653 556.52 540.057L559.556 538.539Z" fill="#EEB190" />
    <path d="M553.484 562.069C551.678 553.856 546.47 545.765 548.171 537.021C552.74 534.607 557.75 562.934 553.484 562.069Z" fill="#CF8371" />
    <path d="M603.566 24.7855C596.37 96.1966 542.235 254.625 538.303 312.783C538.182 314.468 537.878 328.966 538.683 329.102C541.4 322.787 543.085 312.358 545.894 310.885C543.677 328.89 549.446 332.093 550.448 347.684C576.24 390.039 584.726 443.506 593.698 491.872C591.345 504.23 588.613 522.508 593.698 533.225C593.106 536.793 592.939 540.239 592.18 543.852C588.294 536.094 590.951 543.093 589.903 545.75C588.188 550.091 578.851 555.602 576.999 548.786C575.299 542.531 584.271 547.647 583.072 541.954C582.95 541.393 578.927 533.013 578.517 531.328C578.214 530.052 580.567 529.612 580.036 527.532C579.261 524.466 576.119 520.792 575.481 518.044C573.842 510.909 573.417 503.653 572.445 496.411C569.621 493.876 558.934 509.71 557.264 518.424C555.458 527.882 557.826 531.464 559.541 538.539L556.505 540.057C554.441 534.47 555.913 533.893 555.746 533.605C555.442 533.089 549.977 527.715 548.156 537.021C546.455 545.75 551.662 553.841 553.469 562.069C553.94 564.194 553.742 569.751 554.228 572.316C554.547 574.016 564.187 584.582 546.638 585.599C541.142 570.054 553.226 581.06 548.915 565.485C548.019 562.266 544.694 559.397 543.601 556.376C541.248 549.894 539.184 537.521 533.734 534.743C533.643 534.698 534.265 532.982 532.595 533.225C532.246 533.271 528.026 537.582 527.661 538.159C525.323 541.802 521.817 560.946 522.348 542.713C522.682 531.343 533.278 533.286 532.595 523.358C545.787 519.001 543.829 504.336 539.427 492.996C534.007 497.383 533.035 492.267 532.595 492.237C519.919 491.296 513.103 497.854 512.101 498.309C511.144 498.749 510.036 496.73 509.824 496.791C505.588 498.142 506.044 513.277 507.167 517.285C490.331 507.494 482.62 547.784 488.95 560.156C486.885 560.49 474.012 561.781 473.39 561.295C467.864 556.983 483.88 557.454 484.396 554.843C480.16 547.723 481.42 538.235 476.805 531.312C469.063 519.699 457.191 529.916 469.974 483.128C472.797 472.82 476.562 466.217 476.805 465.291C477.078 464.258 475.879 464 476.046 463.393C480.555 462.376 485.489 446.087 490.468 437.206C494.263 430.45 503.068 421.144 507.167 409.121C508.64 382.205 512.405 355.76 515.517 329.057C516.898 329.057 515.987 327.038 516.276 325.262C516.458 324.123 516.822 322.696 517.035 321.466C517.536 318.628 517.991 315.015 518.553 312.358C518.583 312.13 519.752 312.828 519.312 307.804C547.533 215.443 562.608 119.818 579.261 24.7399C587.338 24.7096 595.459 24.6944 603.551 24.7399L603.566 24.7855Z" fill="#F9D2B7" />
    <path d="M491.637 453.556C497.785 452.903 490.407 472.775 489.739 477.466C487.842 490.673 490.164 518.469 472.661 520.337C464.326 502.089 487.113 454.026 491.637 453.556Z" fill="#F9D2B7" />
    <path d="M587.262 480.107C592.332 478.65 585.045 503.182 584.605 506.294C583.542 513.763 586.867 524.785 581.948 522.614C575.83 519.927 585.015 480.76 587.262 480.122V480.107Z" fill="#F9D2B7" />
    <path d="M550.068 576.491C552.558 575.307 558.312 583.656 552.346 584.081C548.11 584.385 549.066 576.977 550.068 576.491Z" fill="#FCEFE5" />
    <path d="M517.065 321.497C517.703 315.682 518.538 312.844 518.583 312.388C518.021 315.045 517.566 318.643 517.065 321.497Z" fill="#EEB190" />
    <path d="M518.583 312.403C518.978 310.551 517.839 307.94 519.342 307.849C519.782 312.874 518.614 312.176 518.583 312.403Z" fill="#EEB190" />
    <path d="M515.547 329.087C516.063 324.594 516.291 325.489 516.306 325.292C516.018 327.068 516.928 329.087 515.547 329.087Z" fill="#EEB190" />
    <path d="M516.306 325.292C516.822 320.753 517.05 321.694 517.065 321.497C516.853 322.726 516.488 324.153 516.306 325.292Z" fill="#EEB190" />
    <path d="M501.884 595.467C501.672 601.206 500.503 598.883 500.366 599.263C499.698 599.293 499.607 598.61 498.848 598.503C500.867 595.71 490.711 580.15 488.601 579.527C464.569 582.776 484.092 582.609 488.601 585.6C499.561 592.871 483.606 597.456 476.836 600.022C461.989 594.89 478.323 560.46 496.95 584.082C493.914 574.335 502.218 586.799 501.884 595.467Z" fill="#FCDACE" />
    <path d="M498.848 598.504C490.908 597.38 482.392 601.934 476.836 600.022C483.606 597.456 499.561 592.887 488.601 585.6C484.092 582.609 464.569 582.776 488.601 579.527C490.711 580.135 500.867 595.71 498.848 598.504Z" fill="#FCEFE5" />
    <path d="M522.378 586.358C528.511 582.639 527.768 584.962 528.071 584.84C529.62 584.218 527.798 582.502 530.348 581.804C530.531 581.759 531.715 585.569 532.246 581.804C540.322 589.637 535.206 588.818 533.005 597.365C524.033 601.312 521.27 595.118 522.378 586.358Z" fill="#FCDACE" />
    <path d="M568.665 533.984C568.027 529.521 567.223 527.699 569.424 523.358C572.809 522.098 575.299 541.848 572.84 543.852C572.46 540.709 572.187 535.411 568.665 533.984Z" fill="#CF8371" />
    <path d="M570.942 565.864C571.185 566.912 572.642 568.4 572.46 569.28C571.641 573.242 559.465 576.324 564.111 565.105C566.479 565.166 568.619 564.832 570.942 565.864Z" fill="#FCDACE" />
    <path d="M390.32 248.644C386.646 247.718 386.555 238.564 384.247 233.842L376.657 171.616V120.016L378.175 124.57V177.688L379.693 192.11C377.704 136.942 381.302 81.8507 381.211 26.668C378.16 25.0437 379.268 28.3076 378.554 28.5657C377.962 24.8767 361.415 25.8786 360.717 27.4271C359.76 82.9438 357.696 200.657 377.416 249.023C380.103 255.627 390.061 271.886 394.874 282.421C397.561 288.327 396.771 293.898 398.669 286.596C400.992 298.665 402.525 307.682 407.778 319.235C409.144 322.226 412.271 324.214 412.332 327.964C401.812 315.136 406.624 331.289 407.778 338.591C407.277 339.274 405.516 340.61 405.5 340.868C404.438 361.635 399.458 409.41 400.187 418.275C400.658 423.983 407.884 451.78 410.055 459.628C396.604 439.696 391.655 415.345 382.729 393.227C382.167 391.83 379.298 391.117 378.934 390.191C377.249 361.742 371.86 333.961 365.271 306.331C366.151 305.77 367.442 305.496 367.548 305.193C368.125 303.462 364.983 273.009 364.512 268.774C360.216 230.427 351.623 192.535 347.054 154.188C345.004 136.973 337.505 33.2718 334.909 27.4575L307.583 27.0779C307.432 26.3796 307.675 25.5295 307.583 24.8008C332.571 24.816 357.802 23.8444 382.714 25.9394C383.458 81.3801 376.308 169.581 383.473 220.969C384.703 229.834 386.706 240.461 390.304 248.674L390.32 248.644Z" fill="#EEB190" />
    <path d="M390.319 248.644C395.314 260.029 408.339 271.157 411.573 285.442C406.426 318.597 416.537 328.344 417.645 338.56C419.148 352.527 412.59 382.904 413.85 406.1C415.763 441.366 436.378 484.601 438.139 502.484C440.083 522.341 431.748 531.404 431.308 549.53C457.981 614.018 383.473 634.361 382.744 590.124C385.264 589.349 383.868 594.481 385.021 597.335C385.295 598.018 386.494 597.608 386.539 597.714C386.646 597.942 386.63 600.189 388.057 601.889C396.301 611.756 416.658 609.874 425.995 597.335C444.166 572.939 417.007 558.881 426.754 534.349C433.433 532.785 435.452 511.82 434.344 505.505C433.934 503.182 419.528 476.024 415.368 474.005C413.592 467.689 411.026 463.09 410.055 459.583C407.884 451.734 400.658 423.938 400.187 418.23C399.458 409.364 404.438 361.59 405.5 340.822C405.5 340.564 407.261 339.228 407.777 338.545C406.624 331.258 401.811 315.091 412.332 327.919C412.271 324.169 409.144 322.18 407.777 319.19C412.104 319.933 408.537 316.093 408.537 315.774C408.37 306.954 409.159 297.997 410.055 289.207C408.886 286.186 401.007 276.546 398.289 276.683C394.054 276.895 397.864 282.33 398.669 286.551C396.771 293.853 397.576 288.281 394.874 282.376C390.061 271.84 380.118 255.581 377.416 248.978C357.696 200.611 359.76 82.8983 360.717 27.3817C361.4 25.8332 377.962 24.8313 378.554 28.5202C379.268 28.2621 378.159 24.9982 381.211 26.6226C381.302 81.8053 377.704 136.897 379.693 192.064L378.175 177.643V124.524L376.657 119.97V171.57L384.247 233.797C386.555 238.518 386.646 247.672 390.319 248.598V248.644Z" fill="#DF997C" />
    <path d="M284.083 24.7855C288.637 56.2556 295.18 87.5283 302.3 118.513C317.83 186.128 344.382 261.547 346.689 329.103C336.306 297.724 327.243 265.889 316.707 234.616C316.51 234.009 314.551 234.966 313.671 232.339C312.563 229.03 314.081 227.481 313.671 226.267C313.458 225.629 312.365 226.145 312.153 225.508C294.209 171.98 275.126 115.173 261.312 58.5479C260.841 47.1015 255.33 36.0194 255.998 24.7703C265.335 24.6185 274.732 24.8159 284.083 24.7703V24.7855Z" fill="#FAE0C9" />
    <path d="M386.524 597.745C388.923 600.158 389.409 598.473 389.56 598.504C391.564 598.838 401.235 599.931 403.223 600.022C405.516 600.128 408.081 601.312 411.193 600.781C426.678 598.094 411.497 560.187 391.458 584.082C392.87 576.233 385.644 588.393 386.524 597.745C386.479 597.638 385.279 598.048 385.006 597.365C383.852 594.511 385.249 589.38 382.729 590.154C382.456 573.637 393.174 561.022 394.874 552.596C395.314 550.38 394.069 549.621 394.115 549.181C394.115 549.105 395.602 549.424 395.633 548.801C396.028 541.53 391.64 521.126 384.627 523.373C378.752 525.256 382.532 542.592 376.657 543.488L375.139 552.217C375.624 542.44 373.393 531.783 378.175 522.614C383.579 514.523 388.467 512.154 394.874 521.476C407.853 540.33 398.092 560.035 399.808 561.31C402.054 559.732 413.486 561.538 413.85 560.931C416.947 555.648 405.607 558.73 404.741 554.858C404.438 553.492 410.95 532.679 413.85 528.671C413.941 528.535 414.852 528.231 416.127 526.394C416.416 525.984 420.864 524.922 422.959 519.183C427.467 506.826 418.875 486.484 415.368 474.035C419.528 476.039 433.934 503.198 434.344 505.536C435.452 511.836 433.449 532.801 426.754 534.379C417.008 558.912 444.166 572.969 425.995 597.365C416.658 609.905 396.301 611.787 388.058 601.919C386.631 600.219 386.646 597.972 386.539 597.745H386.524Z" fill="#EEB190" />
    <path d="M294.71 533.226C291.826 515.434 287.924 493.801 289.397 475.933C290.232 465.762 306.718 393.333 310.65 376.513C314.506 360.011 321.899 355.836 316.722 334.021C315.113 327.22 308.555 318.309 307.614 312.009C306.278 302.992 310.604 289.678 306.855 260.789C313.155 264.872 311.576 287.188 312.927 296.084C314.567 306.878 317.178 317.383 319.759 327.964C353.43 339.198 332.693 351.479 322.036 377.287C308.373 410.397 303.743 453.252 294.71 488.077C295.727 501.983 301.359 521.46 294.71 533.226Z" fill="#EEB190" />
    <path d="M394.115 549.165C375.154 544.414 387.799 583.596 375.897 597.35C367.426 607.157 349.346 603.513 349.71 589.38C340.905 595.665 327.258 591.353 330.355 579.512C331.235 579.406 331.463 581.531 331.873 581.789C328.73 585.751 337.232 591.08 340.602 589.38C340.693 586.283 346.932 584.324 348.572 581.41C353.703 572.24 351.213 546.205 359.198 538.539C364.724 547.162 358.819 557.257 357.68 563.967C357.362 565.864 358.029 568.582 357.68 570.419C355.1 583.915 346.31 596.454 359.578 599.262C371.146 601.707 371.601 593.828 373.62 585.979C372.968 574.912 374.607 563.936 375.138 552.961C375.138 552.703 375.138 552.46 375.138 552.202L376.656 543.473C382.532 542.577 378.751 525.24 384.626 523.358C391.64 521.111 396.027 541.514 395.633 548.786C395.602 549.408 394.13 549.09 394.115 549.165Z" fill="#CF8371" />
    <path d="M318.225 521.096L319.743 534.379C317.132 540.801 316.434 547.754 315.189 554.494C310.65 555.982 311.075 556.862 310.635 559.048C293.647 554.464 297.807 552.353 296.213 544.626L297.351 543.108C297.685 545.871 298.824 545.598 300.008 546.903C301.936 549.029 304.335 553.522 307.978 552.976C310.195 552.642 316.176 545.158 307.599 544.626C307.401 542.046 309.572 539.89 309.876 537.415C310.225 534.485 307.538 530.963 312.153 524.512C312.973 523.373 317.33 519.274 318.225 521.096Z" fill="#DF997C" />
    <path d="M365.286 306.331C355.828 266.618 343.183 227.694 334.924 187.571C323.994 134.468 318.878 80.0594 307.599 27.0627L334.924 27.4423C337.505 33.2566 345.02 136.973 347.069 154.173C351.623 192.52 360.231 230.411 364.527 268.758C364.998 273.009 368.14 303.447 367.563 305.177C367.457 305.481 366.182 305.754 365.286 306.316V306.331Z" fill="#EEB190" />
    <path d="M413.85 523.373C408.688 517.285 403.314 516.921 400.187 507.053C399.534 505.004 393.523 466.703 393.356 464.562C390.836 431.225 420.028 488.639 417.645 513.885C417.159 518.986 414.305 522.159 413.85 523.373Z" fill="#F9D2B7" />
    <path d="M329.611 536.262C328.245 543.685 322.111 561.811 315.189 565.105C314.521 565.424 314.081 565.986 313.291 565.865C311.834 565.227 314.733 556.953 315.189 554.479C316.434 547.738 317.132 540.786 319.743 534.364L318.225 521.081C319.379 515.737 312.714 506.841 317.087 496.032C329.747 509.437 333.011 517.756 329.611 536.247V536.262Z" fill="#F9D2B7" />
    <path d="M378.19 522.614C373.408 531.783 375.639 542.425 375.154 552.217C375.154 552.475 375.154 552.718 375.154 552.976C371.601 558.684 360.155 573.667 357.696 570.434C358.045 568.597 357.377 565.879 357.696 563.982C358.834 557.272 364.74 547.176 359.214 538.554C348.951 522.538 346.477 547.844 342.515 559.048C344.412 549.12 345.627 532.071 356.177 529.066C355.677 522.659 349.103 522.265 347.069 519.198C346.006 517.604 343.243 508.086 343.274 506.294C343.304 503.622 345.581 500.45 346.31 498.324C345.748 503.653 343.638 508.055 345.551 513.885C347.737 520.579 359.229 524.709 356.177 525.27C356.466 531.388 364.937 530.72 364.907 537.036C365.544 533.984 373.423 532.709 374.395 531.343C374.44 527.699 376.839 524.648 378.19 522.614Z" fill="#F9D2B7" />
    <path d="M359.214 538.539C351.228 546.22 353.718 572.24 348.587 581.41C346.963 584.324 340.708 586.283 340.617 589.38C337.247 591.095 328.745 585.767 331.888 581.789C333.391 582.7 334.727 585.281 337.581 585.584C346.295 586.495 343.243 573.197 335.683 573.819C335.44 572.969 339.843 566.578 342.515 559.018C346.477 547.83 348.951 522.508 359.214 538.524V538.539Z" fill="#EEB190" />
    <path d="M331.129 540.816C329.505 545.249 329.717 550.592 327.334 554.858C327.045 559.488 334.651 570.115 326.195 574.214C322.628 575.944 321.747 573.667 321.261 573.455C330.704 567.883 322.491 562.099 315.948 567.382C315.66 566.517 315.69 565.697 315.189 565.105C322.111 561.826 328.245 543.685 329.611 536.262C332.966 535.973 328.746 539.252 331.129 540.816Z" fill="#EEB190" />
    <path d="M307.614 544.611C316.191 545.142 310.21 552.627 307.993 552.961C304.35 553.507 301.966 549.014 300.023 546.888C301.587 545.522 305.807 544.505 307.614 544.611Z" fill="#FCDACE" />
    <path d="M255.999 24.7856C255.331 36.0195 260.841 47.1167 261.312 58.5632C275.127 115.173 294.209 171.995 312.153 225.523C312.365 226.161 313.458 225.644 313.671 226.282C314.081 227.497 312.563 229.045 313.671 232.354C314.551 234.981 316.495 234.024 316.707 234.632C327.243 265.904 336.291 297.739 346.689 329.118C344.382 261.563 317.815 186.144 302.3 118.528C295.181 87.5436 288.638 56.2708 284.083 24.8008C291.917 24.7552 299.78 24.8008 307.614 24.8008C307.705 25.5294 307.462 26.3796 307.614 27.0779C318.878 80.0745 324.009 134.483 334.939 187.586C343.198 227.709 355.828 266.648 365.301 306.346C371.89 333.976 377.279 361.757 378.964 390.206C379.328 391.132 382.198 391.845 382.759 393.242C391.671 415.361 396.635 439.711 410.085 459.643C411.057 463.15 413.622 467.75 415.398 474.065C418.905 486.514 427.498 506.871 422.989 519.213C420.894 524.952 416.446 526.014 416.157 526.424C412.726 525.772 414.199 523.752 413.88 523.388C414.336 522.189 417.19 519.001 417.675 513.9C420.074 488.639 390.881 431.24 393.386 464.577C393.553 466.718 399.565 505.019 400.217 507.069C403.345 516.921 408.719 517.301 413.88 523.388C413.091 525.498 413.227 526.698 413.88 528.701C410.981 532.709 404.468 553.522 404.772 554.889C405.637 558.76 416.977 555.678 413.88 560.961C413.531 561.568 402.085 559.762 399.838 561.34C398.122 560.065 407.884 540.36 394.904 521.506C388.498 512.185 383.609 514.553 378.205 522.644C376.854 524.678 374.455 527.73 374.41 531.373C373.438 532.74 365.559 534.015 364.922 537.066C364.952 530.751 356.481 531.419 356.193 525.301C359.244 524.739 347.752 520.61 345.566 513.915C343.653 508.086 345.763 503.683 346.325 498.355C346.34 498.173 347.995 498.173 346.705 494.56C345.247 497.338 346.386 498.173 346.325 498.355C345.596 500.48 343.319 503.653 343.289 506.325C343.259 508.116 346.021 517.635 347.084 519.229C349.118 522.295 355.692 522.69 356.193 529.096C345.642 532.087 344.443 549.135 342.53 559.078C339.858 566.639 335.471 573.015 335.698 573.88C343.259 573.258 346.31 586.541 337.596 585.645C334.742 585.341 333.406 582.761 331.903 581.85C331.493 581.592 331.266 579.466 330.385 579.573H328.867C336.078 575.307 333.816 565.5 334.939 560.976C336.032 556.574 339.812 548.361 340.253 545.036C341.771 533.316 337.065 524.739 331.144 540.861C328.761 539.298 332.981 536.034 329.626 536.307C333.027 517.802 329.763 509.498 317.102 496.093C312.73 506.886 319.394 515.798 318.24 521.141C317.345 519.32 312.988 523.418 312.168 524.557C307.553 531.009 310.24 534.531 309.891 537.461C309.587 539.935 307.416 542.091 307.614 544.672C305.807 544.565 301.587 545.583 300.023 546.949C298.839 545.643 297.701 545.917 297.367 543.154L296.228 544.672C295.454 540.922 295.317 537.051 294.71 533.286C301.359 521.506 295.727 502.029 294.71 488.138C303.727 453.298 308.358 410.442 322.036 377.348C332.693 351.54 353.43 339.259 319.758 328.025C317.178 317.459 314.567 306.938 312.927 296.145C311.576 287.264 313.155 264.933 306.855 260.849C299.355 203.146 269.722 141.451 251.459 85.9192C249.046 78.5868 233.834 30.524 234.001 27.4878C234.077 26.2278 233.865 25.7268 235.14 24.8311C242.093 24.74 249.061 24.9526 256.014 24.8311L255.999 24.7856Z" fill="#F9D2B7" />
    <path d="M360.352 502.12C360.732 502.044 367.077 503.076 367.563 504.776C368.884 520.701 355.783 517.483 354.659 514.644C352.58 509.346 358.166 502.545 360.352 502.12Z" fill="#FCEFE5" />
    <path d="M301.162 481.626C303.287 494.848 309.876 508.42 304.957 521.84C302.892 519.289 304.987 513.566 303.818 505.52C303.014 500.04 297.093 486.089 301.162 481.61V481.626Z" fill="#F9D2B7" />
    <path d="M373.635 507.433C371.844 497.975 368.778 498.856 359.973 496.427C369.688 496.852 373.453 497.854 373.635 507.433Z" fill="#F9D2B7" />
    <path d="M416.127 526.409C414.852 528.246 413.941 528.55 413.85 528.686C413.197 526.682 413.06 525.483 413.85 523.373C414.169 523.737 412.696 525.756 416.127 526.409Z" fill="#F9D2B7" />
    <path d="M373.635 514.265C373.727 512.321 373.666 509.437 373.635 507.433C374.182 510.333 374.015 511.319 373.635 514.265Z" fill="#F9D2B7" />
    <path d="M350.105 488.457C349.756 489.808 350.925 490.264 350.864 490.355C348.678 493.861 345.338 493.133 350.105 488.457Z" fill="#F9D2B7" />
    <path d="M373.636 514.265C373.408 515.965 374.045 518.697 373.256 518.819C370.539 513.642 373.62 514.583 373.636 514.265Z" fill="#F9D2B7" />
    <path d="M358.075 480.107C358.834 480.107 359.593 480.092 360.352 480.107C365.59 480.229 361.521 482.005 358.075 480.107Z" fill="#F9D2B7" />
    <path d="M366.804 518.819C367.411 520.246 370.007 518.91 368.702 521.096C362.842 518.637 366.728 519.077 366.804 518.819Z" fill="#F9D2B7" />
    <path d="M346.31 498.325C346.371 498.142 345.232 497.307 346.689 494.529C347.98 498.142 346.325 498.127 346.31 498.325Z" fill="#F9D2B7" />
    <path d="M353.521 499.843C354.538 499.995 356.193 499.448 356.936 500.222C357.665 500.997 353.43 501.528 353.521 499.843Z" fill="#F9D2B7" />
    <path d="M359.593 522.614C360.231 522.69 362.174 522.341 362.25 522.994C362.311 523.555 358.455 523.753 359.593 522.614Z" fill="#F9D2B7" />
    <path d="M350.105 488.457C350.227 488.336 349.832 486.985 350.485 486.939C352.899 488.928 350.151 488.305 350.105 488.457Z" fill="#F9D2B7" />
    <path d="M366.804 518.819C366.622 518.378 366.667 516.951 367.184 516.542C368.428 518.636 366.834 518.712 366.804 518.819Z" fill="#F9D2B7" />
    <path d="M407.777 319.22C402.54 307.667 400.992 298.65 398.669 286.581C397.864 282.361 394.054 276.941 398.289 276.713C401.007 276.577 408.886 286.217 410.055 289.238C409.159 298.027 408.37 306.969 408.537 315.804C408.537 316.123 412.104 319.964 407.777 319.22Z" fill="#DF997C" />
    <path d="M403.223 600.022C413.015 598.746 384.52 586.161 389.56 598.504C389.409 598.473 388.923 600.158 386.524 597.744C385.644 588.393 392.87 576.233 391.458 584.082C411.497 560.187 426.678 598.094 411.193 600.781C408.081 601.312 405.515 600.128 403.223 600.022Z" fill="#FCDACE" />
    <path d="M403.223 600.021C401.25 599.93 391.564 598.837 389.56 598.503C384.52 586.161 413.015 598.746 403.223 600.021Z" fill="#FCEFE5" />
    <path d="M328.852 579.527C314.733 584.294 308.13 571.451 310.635 559.033C311.075 556.847 310.65 555.967 315.189 554.479C314.733 556.953 311.834 565.227 313.291 565.865C314.081 565.986 314.521 565.424 315.189 565.106C315.69 565.698 315.66 566.517 315.948 567.383C317.041 570.662 317.36 571.77 321.261 573.455C321.747 573.668 322.612 575.945 326.195 574.214C334.651 570.115 327.045 559.489 327.334 554.858C329.717 550.593 329.505 545.264 331.129 540.816C337.049 524.694 341.756 533.271 340.237 544.991C339.812 548.315 336.017 556.528 334.924 560.931C333.801 565.439 336.063 575.262 328.852 579.527Z" fill="#DF997C" />
    <path d="M337.581 534.744C343.228 543.351 333.71 552.293 333.785 561.31C331.326 561.341 335.713 534.485 337.581 534.744Z" fill="#CF8371" />
    <path d="M321.261 573.455C317.375 571.77 317.041 570.662 315.948 567.383C322.491 562.1 330.704 567.884 321.261 573.455Z" fill="#FCDACE" />
    <path d="M375.154 552.961C374.622 563.922 372.983 574.913 373.636 585.979C371.617 593.828 371.161 601.707 359.593 599.263C346.325 596.454 355.115 583.915 357.696 570.419C360.155 573.653 371.601 558.669 375.154 552.961Z" fill="#EEB190" />
    <path d="M361.87 584.082C368.656 584.385 370.448 604.227 353.141 592.811C354.918 589.198 356.694 583.854 361.87 584.082Z" fill="#FCDACE" />
    <path d="M308.297 241.205C311.424 244.211 308.388 245.198 308.874 249.57C310.149 261.001 317.512 275.18 313.807 286.323C309.208 280.083 304.471 274.072 300.6 267.453C300.6 262.549 299.234 244.089 298.611 238.913C301.617 239.474 305.336 240.856 308.282 241.205H308.297Z" fill="#EB8C74" />
    <path d="M332.176 293.944C330.218 294.004 331.372 293.306 332.04 291.97C336.093 283.818 349.057 278.049 342.818 275.894C352.109 267.666 359.472 253.684 366.622 242.086C367.229 241.114 367.958 240.234 367.593 239.049C388.346 235.74 395.572 226.647 388.923 238.063C380.998 251.665 346.765 283.272 332.161 293.944H332.176Z" fill="#FDD5B4" />
    <path d="M367.593 239.049C367.958 240.233 367.214 241.114 366.622 242.086C351.274 242.541 336.321 248.947 320.988 244.272L318.134 245.957L325.178 295.917L332.04 291.985C331.372 293.306 330.218 294.004 332.176 293.959C329.292 296.069 327.212 298.968 323.705 300.487C321.626 300.259 315.325 288.403 313.807 286.338C317.511 275.21 310.149 261.031 308.874 249.585C308.388 245.213 311.424 244.226 308.297 241.22C323.28 243.012 352.443 241.478 367.609 239.064L367.593 239.049Z" fill="#EB8C74" />
    <path d="M321.018 372.854C314.339 379.336 307.355 389.826 301.298 396.976C301.921 390.889 303.454 379.792 300.98 375.237C301.01 374.919 300.873 374.585 300.904 374.251C307.249 370.865 302.983 353.832 306.475 343.206C325.072 362.121 339.858 353.331 321.018 372.854Z" fill="#F8EBF8" />
    <path d="M382.926 192.292C387.951 240.279 409.296 250.799 411.846 259.711C414.153 267.787 413.546 272.842 408.476 279.734C406.092 282.968 359.366 321.922 356.982 325.854C356.921 325.96 355.904 325.93 354.72 327.493C376.915 341.278 400.263 354.758 426.207 363.563C425.205 376.649 421.972 388.764 420.529 401.546C419.072 401.182 417.949 400.772 416.841 399.831C409.979 393.986 338.051 374.129 306.475 334.811C302.862 330.302 302.938 324.047 299.978 326.856C299.416 321.178 296.714 314.362 296.349 308.806C295.469 295.431 300.615 280.751 300.6 267.468C304.471 274.087 309.208 280.099 313.808 286.338C315.326 288.402 321.641 300.259 323.705 300.487C327.197 298.968 329.277 296.069 332.176 293.959C346.78 283.286 381.013 251.68 388.938 238.078C395.587 226.662 388.361 235.77 367.609 239.064C352.443 241.478 323.28 242.996 308.297 241.22C305.352 240.871 301.632 239.49 298.627 238.928C297.351 228.392 293.845 217.249 291.628 206.775L293.89 205.135C293.45 217.948 306.278 221.151 303.773 210.388C303.211 207.959 299.932 206 299.887 205.712C298.672 199.791 300.069 202.569 324.495 200.535C347.403 198.622 360.337 196.755 382.941 192.307L382.926 192.292Z" fill="#F8EBF8" />
    <path d="M397.773 236.955L399.656 238.306L394.281 246.594C356.785 282.71 384.308 256.052 397.773 236.955Z" fill="#E37460" />
    <path d="M301.799 199.123C309.344 199.898 316.844 200.535 324.495 200.505C300.053 202.539 298.672 199.761 299.886 205.682C299.947 205.97 303.211 207.928 303.773 210.357C306.278 221.121 293.45 217.933 293.89 205.105L291.628 206.744C291.021 203.845 290.474 200.854 289.822 197.97C293.814 198.197 297.822 198.714 301.799 199.108V199.123Z" fill="#F7E3E4" />
    <path d="M304.805 216.718C333.497 221.09 362.113 217.523 391.048 217.143C363.358 221.348 330.78 225.508 304.805 216.718Z" fill="#EB8C74" />
    <path d="M389.925 226.616C406.836 224.719 374.804 233.812 351.836 234.708C361.172 232.4 381.302 227.588 389.925 226.616Z" fill="#E37460" />
    <path d="M343.926 214.987L384.854 213.621L344.063 216.946L343.926 214.987Z" fill="#E37460" />
    <path d="M416.84 399.815L415.656 399.891C405.227 396.491 395.01 392.468 385.112 388.171C367.335 380.46 350.317 371.655 333.937 362.06C332.586 362.121 322.719 371.199 321.018 372.854C339.858 353.331 325.056 362.121 306.475 343.206C302.999 353.847 307.249 370.88 300.904 374.251C302.239 361.802 304.137 349.475 304.259 336.921C303.15 334.355 300.144 328.389 299.993 326.825C302.953 324.017 302.877 330.271 306.49 334.78C338.066 374.099 409.994 393.955 416.855 399.8L416.84 399.815Z" fill="#A0212B" />
    <path d="M353.46 309.276C368.003 295.264 383.852 280.615 394.965 264.842L368.702 288.919C375.412 286.065 399.838 253.198 402.494 253.425C410.464 254.109 378.675 289.951 367.639 299.378C363.343 303.219 358.181 306.012 353.46 309.261V309.276Z" fill="#E37460" />
    <path d="M347.418 333.429C363.388 345.938 399.868 362.121 410.586 369.59C428.469 382.069 391.443 364.307 376.292 355.168C366.698 349.369 354.158 341.521 347.433 333.444L347.418 333.429Z" fill="#EB8C74" />
    <path d="M353.46 309.276C353.05 309.671 351.851 315.652 344.366 315.349C347.236 313.208 350.53 311.295 353.46 309.276Z" fill="#E37460" />
    <path d="M366.622 242.085C359.472 253.684 352.109 267.665 342.818 275.893C349.058 278.049 336.108 283.818 332.04 291.97L325.178 295.902L318.134 245.941L320.988 244.256C336.321 248.932 351.274 242.526 366.622 242.07V242.085Z" fill="#FDD5B4" />
    <path d="M436.181 284.729C443.058 310.916 445.957 337.725 444.136 364.793C443.027 381.234 433.008 410.715 439.657 420.006C443.68 478.483 451.832 537.749 432.841 595.558C431.87 598.534 430.002 601.813 428.727 604.743C423.52 616.72 424.947 618.982 409.842 623.855C388.756 624.812 366.698 620.834 367.76 600.082C377.841 615.81 408.961 624.766 415.049 613.107C416.142 611.028 418.04 585.493 419.755 578.161C425.433 553.795 434.815 529.992 434.875 504.898C434.875 500.328 431.232 452.022 424.765 453.677C420.742 469.192 424.203 485.329 421.516 500.89C417.508 523.965 398.426 557.242 367.472 561.523C365.999 553.917 367.715 547.845 367.624 546.676C371.783 547.04 373.954 544.915 376.884 543.063C386.797 540.087 392.991 532.967 398.274 525.741C400.081 523.282 401.31 523.069 403.709 518.439C414.093 504.002 417.387 489.459 418.374 472.911C419.269 457.928 417.25 442.975 416.446 428.037C417.174 419.201 419.558 410.29 420.545 401.546C421.987 388.764 425.22 376.649 426.222 363.563C428.12 338.833 429.41 324.973 419.467 300.729C417.675 296.372 413.607 292.592 411.482 288.433C410.54 286.596 409.979 282.406 408.491 279.734C413.561 272.842 414.169 267.787 411.861 259.71C421.319 267.134 429.137 275.635 436.196 284.729H436.181Z" fill="#DFD7E1" />
    <path d="M301.298 396.976C300.767 402.077 299.279 406.935 298.778 411.99C295.347 445.95 291.522 467.871 307.28 499.918C316.874 519.426 335.774 548.072 365.043 543.867C365.696 544.687 367.533 545.537 367.609 546.66C367.685 547.829 365.969 553.902 367.457 561.507C327.895 566.988 307.098 518.94 298.581 494.59C304.942 524.177 323.053 559.291 362.887 564.301L363.889 595.877C366.774 596.257 366.075 597.456 367.745 600.067C366.698 620.834 388.741 624.797 409.827 623.84C394.509 628.789 358.333 632.205 344.002 626.436C338.993 624.417 332.86 617.388 329.429 613.608C326.681 610.572 323.964 607.536 321.641 604.257C265.153 524.405 291.841 455.939 300.949 375.237C303.424 379.792 301.906 390.889 301.268 396.976H301.298Z" fill="#C3B6CA" />
    <path d="M439.657 419.991C433.008 410.7 443.027 381.219 444.136 364.778C445.957 337.725 443.058 310.916 436.181 284.713C440.705 290.543 447.066 296.084 449.358 303.082C460.167 336.253 442.83 385.576 439.657 419.975V419.991Z" fill="#F9F5FB" />
    <path d="M419.467 300.729C429.395 324.973 428.12 338.834 426.222 363.563C400.278 354.758 376.945 341.278 354.735 327.493C355.935 325.93 356.937 325.96 356.997 325.854L397.303 349.749C395.724 342.72 388.179 338.469 385.902 331.258C376.611 301.671 407.018 296.266 408.916 294.551C410.039 293.534 408.461 292.152 410.343 289.511L416.34 307.394C423.414 308.32 414.427 300.517 419.452 300.745L419.467 300.729Z" fill="#FDE4C7" />
    <path d="M411.466 288.417C410.009 288.417 410.449 289.359 410.358 289.48C408.476 292.137 410.055 293.503 408.931 294.52C407.034 296.251 376.626 301.64 385.917 331.228C388.179 338.439 395.724 342.689 397.318 349.718L357.012 325.823C359.396 321.891 406.123 282.937 408.506 279.704C409.994 282.375 410.54 286.55 411.497 288.402L411.466 288.417Z" fill="#FDD5B4" />
    <path d="M367.761 600.067C366.091 597.471 366.789 596.272 363.905 595.877L362.903 564.301C323.053 559.291 304.957 524.192 298.596 494.59C307.113 518.94 327.911 566.988 367.472 561.507C398.426 557.226 417.524 523.95 421.516 500.875C424.218 485.314 420.742 469.192 424.765 453.662C431.232 452.022 434.875 500.328 434.875 504.882C434.83 529.976 425.433 553.78 419.755 578.146C418.055 585.478 416.142 611.012 415.049 613.092C408.962 624.736 377.841 615.779 367.761 600.067Z" fill="url(#paint2_linear_10_737)" />
    <path d="M419.467 300.729C414.457 300.486 423.429 308.305 416.355 307.379L410.358 289.495C410.449 289.359 410.024 288.418 411.466 288.433C413.592 292.592 417.675 296.372 419.452 300.729H419.467Z" fill="#F8EDED" />
    <path d="M398.259 525.741C392.976 532.952 386.782 540.087 376.869 543.063C382.441 539.526 394.039 530.295 398.259 525.741Z" fill="#EB8C74" />
    <path d="M398.259 525.741C398.578 525.407 402.95 519.471 403.694 518.439C401.28 523.069 400.05 523.282 398.259 525.741Z" fill="#EB8C74" />
    <path d="M420.53 401.545C419.543 410.305 417.159 419.216 416.431 428.036C417.235 442.974 419.254 457.912 418.359 472.911C417.584 472.972 416.294 472.774 416.021 473.564C415.52 475.021 415.748 485.663 409.751 503.182C408.309 503.212 408.339 501.785 407.352 502.848C405.273 505.079 392.976 539.859 365.013 543.882C335.744 548.072 316.844 519.441 307.249 499.933C291.492 467.871 295.317 445.965 298.748 412.005C304.684 412.643 300.251 427.657 300.57 438.086C300.995 452.128 302.634 470.376 307.31 483.614C313.352 500.738 329.596 524.815 348.815 533.149C369.127 541.954 378.934 537.521 392.02 521.733C421.456 486.255 406.487 440.348 414.533 400.984C415.383 400.802 415.839 400.802 415.641 399.921L416.825 399.845C417.934 400.786 419.057 401.196 420.514 401.561L420.53 401.545Z" fill="#EB8C74" />
    <path d="M409.766 503.182C409.144 504.973 404.073 517.695 403.694 518.439C402.95 519.471 398.578 525.407 398.259 525.741C394.039 530.28 382.441 539.51 376.869 543.062C373.939 544.914 371.768 547.04 367.609 546.675C367.533 545.567 365.681 544.702 365.043 543.882C393.006 539.874 405.303 505.08 407.383 502.848C408.37 501.785 408.339 503.212 409.781 503.182H409.766Z" fill="#803E44" />
    <path d="M418.359 472.911C417.372 489.474 414.078 504.017 403.694 518.439C404.073 517.695 409.159 504.973 409.766 503.182C415.748 485.663 415.535 475.021 416.036 473.564C416.309 472.774 417.584 472.957 418.374 472.911H418.359Z" fill="#EB8C74" />
    <path d="M348.83 533.134C329.611 524.815 313.367 500.723 307.325 483.599C308.676 483.326 309.025 481.64 310.847 482.855C313.64 484.722 335 522.492 348.83 533.134Z" fill="#F6C1A8" />
    <path d="M385.112 388.171L382.501 393.302L350.363 375.753L348.693 377.347C362.052 387.336 390.987 406.1 409.356 403.291C409.645 403.246 409.265 402.092 414.548 400.954C406.502 440.318 421.455 486.225 392.035 521.703C378.949 537.491 369.142 541.924 348.83 533.119C335 522.477 313.625 484.707 310.847 482.84C309.026 481.625 308.676 483.31 307.325 483.583C302.65 470.346 301.01 452.098 300.585 438.056C300.266 427.627 304.699 412.613 298.763 411.975C299.279 406.92 300.767 402.077 301.283 396.961C307.34 389.811 314.324 379.321 321.003 372.839C322.704 371.184 332.571 362.106 333.922 362.045C350.287 371.639 367.305 380.444 385.097 388.156L385.112 388.171Z" fill="url(#paint3_linear_10_737)" />
    <path d="M385.112 388.171C395.01 392.468 405.227 396.491 415.656 399.891C415.854 400.772 415.383 400.772 414.548 400.954C409.265 402.092 409.645 403.246 409.356 403.292C390.972 406.1 362.037 387.336 348.693 377.347L350.363 375.753L382.501 393.303L385.112 388.171Z" fill="#FDE4C7" />
    <path d="M374.698 400.771C388.361 425.456 411.33 516.131 375.533 532.269C361.445 538.614 381.833 522.963 385.583 514.264C394.54 493.451 386.236 448.516 380.664 426.579C379.495 421.994 376.839 422.177 376.778 421.903C374.956 415.042 375.139 403.747 371.859 402.457L374.713 400.771H374.698Z" fill="#FEF5DF" />
    <path d="M498.969 514.766C493.368 519.973 484.092 535.548 492.138 541.317C500.184 547.086 503.372 538.934 503.584 535.624C503.797 532.315 507.121 522.144 509.232 518.895C516.367 507.919 512.344 502.348 498.984 514.766H498.969Z" fill="#EEB190" />
    <path d="M495.038 443.703C489.208 451.081 479.265 472.896 487.098 480.502C494.931 488.107 498.484 476.767 498.818 472.198C499.152 467.628 502.916 453.51 505.163 448.956C512.769 433.577 508.958 426.063 495.038 443.688V443.703Z" fill="#EEB190" />
    <path d="M498.241 520.215C495.007 524.602 489.36 537.552 493.444 542.091C497.527 546.63 499.592 539.89 499.85 537.172C500.108 534.455 502.324 526.075 503.6 523.373C507.896 514.234 505.968 509.771 498.256 520.23L498.241 520.215Z" fill="#BF907B" />
    <path d="M578.077 435.4C576.164 441.73 575.041 458.642 581.872 461.875C588.704 465.109 594.898 466.536 594.002 463.408C593.106 460.281 585.303 440.075 585.804 436.523C588.036 420.72 584.423 414.465 578.062 435.4H578.077Z" fill="#EEB190" />
    <path d="M466.437 603.756C466.437 603.756 475.53 611.817 482.453 612.455C489.375 613.092 499.622 607.597 498.924 606.58L498.226 605.563C498.226 605.563 489.997 608.796 486.475 608.69C482.954 608.584 471.796 604.545 469.594 603.741C467.393 602.936 466.452 603.741 466.452 603.741L466.437 603.756Z" fill="#BF907B" />
    <path d="M472.539 564.862C472.539 564.862 462.444 571.618 460.076 578.161C457.708 584.704 460.44 595.998 461.594 595.573L462.748 595.148C462.748 595.148 461.7 586.374 462.687 582.988C463.674 579.603 470.399 569.842 471.75 567.899C473.101 565.955 472.539 564.847 472.539 564.847V564.862Z" fill="#BF907B" />
    <path d="M514.348 595.877C514.348 595.877 518.31 601.525 521.71 602.314C525.111 603.103 530.576 600.113 530.303 599.43L530.03 598.746C530.03 598.746 525.718 600.371 523.972 600.128C522.227 599.885 516.959 596.682 515.926 596.044C514.894 595.407 514.363 595.877 514.363 595.877H514.348Z" fill="#BF907B" />
    <path d="M523.137 591.687C523.137 591.687 524.306 595.331 526.083 596.545C527.859 597.759 531.472 597.76 531.441 597.365L531.411 596.97C531.411 596.97 528.694 596.651 527.752 596.09C526.811 595.528 524.458 592.719 523.988 592.158C523.517 591.596 523.137 591.687 523.137 591.687Z" fill="#DF997C" />
    <path d="M542.038 588.621C542.038 588.621 546.607 591.292 549.233 590.761C551.86 590.23 554.729 586.389 554.304 585.994L553.894 585.6C553.894 585.6 551.404 588.12 550.114 588.499C548.824 588.879 544.117 588.347 543.191 588.226C542.265 588.104 542.038 588.605 542.038 588.605V588.621Z" fill="#BF907B" />
    <path d="M560.164 575.914C560.164 575.914 564.733 578.586 567.359 578.055C569.986 577.523 572.855 573.682 572.43 573.288L572.02 572.893C572.02 572.893 569.53 575.413 568.24 575.793C566.95 576.172 562.243 575.641 561.317 575.519C560.391 575.398 560.164 575.899 560.164 575.899V575.914Z" fill="#BF907B" />
    <path d="M575.496 553.386C575.496 553.386 580.066 556.058 582.692 555.526C585.319 554.995 588.188 551.154 587.763 550.759L587.353 550.365C587.353 550.365 584.863 552.885 583.573 553.264C582.282 553.644 577.576 553.113 576.65 552.991C575.724 552.87 575.496 553.371 575.496 553.371V553.386Z" fill="#BF907B" />
    <path d="M517.9 568.992C517.9 568.992 515.866 578.267 516.458 581.789C517.05 585.311 517.809 580.013 519.16 579.041C520.511 578.07 526.113 580.195 526.022 577.979C525.931 575.762 520.845 567.716 517.915 568.976L517.9 568.992Z" fill="#BF907B" />
    <path d="M582.449 511.274C582.449 511.274 585.941 522.705 585.941 528.884C585.941 535.062 588.385 539.875 589.858 537.339C591.33 534.804 589.934 525.255 588.613 520.413C587.292 515.57 587.687 492.981 585.273 490.704C582.859 488.426 581.113 506.37 582.465 511.274H582.449Z" fill="#EAAF98" />
    <path d="M523.957 558.714C523.957 558.714 527.251 565.379 527.145 568.931C527.039 572.483 529.407 575.322 530.91 573.895C532.413 572.468 531.199 566.957 529.954 564.134C528.709 561.31 529.483 548.346 527.1 546.964C524.716 545.583 522.682 555.845 523.942 558.699L523.957 558.714Z" fill="#CF8371" />
    <path d="M507.759 519.593C507.759 519.593 510.188 526.622 509.626 530.144C509.065 533.665 511.069 536.762 512.738 535.548C514.408 534.333 513.892 528.701 513.012 525.741C512.131 522.781 514.545 510.014 512.359 508.344C510.173 506.674 506.848 516.602 507.744 519.593H507.759Z" fill="#CF8371" />
    <path d="M580.157 466.839C580.157 466.839 586.852 471.591 587.778 475.022C588.704 478.453 592.332 481.458 593.364 479.667C594.397 477.876 590.04 467.158 588.522 464.471C586.943 461.678 582.601 455.15 579.777 454.679C577.06 454.224 578.108 464.456 580.142 466.824L580.157 466.839Z" fill="#CF8371" />
    <path d="M502.522 472.912C502.522 472.912 500.366 459.583 503.129 457.594C505.892 455.59 505.178 448.349 502.066 446.421C498.954 444.493 491.941 453.586 490.665 456.698C489.345 459.932 486.931 468.752 489.542 474.293C492.032 479.622 502.173 477.011 502.537 472.912H502.522Z" fill="#E8A38B" />
    <path d="M570.988 431.862C567.724 421.6 565.158 396.658 575.238 396.324C585.318 395.99 585.06 407.77 583.907 411.687C582.753 415.604 581.812 429.783 582.525 435.111C584.909 453.131 578.775 456.364 570.988 431.847V431.862Z" fill="#EEB190" />
    <path d="M526.948 512.655C526.948 512.655 533.051 502.636 531.715 499.903C530.379 497.171 533.354 491.539 536.284 491.22C539.214 490.901 541.248 501.102 541.112 504.154C540.975 507.327 539.745 515.479 535.965 518.97C532.337 522.325 525.824 516.147 526.948 512.655Z" fill="#E8A38B" />
    <path d="M530.743 512.139C530.743 512.139 534.174 506.507 533.43 504.974C532.686 503.44 534.356 500.267 535.996 500.085C537.635 499.903 538.789 505.642 538.713 507.357C538.637 509.148 537.939 513.733 535.813 515.691C533.764 517.574 530.105 514.112 530.743 512.139Z" fill="#CF8371" />
    <path d="M472.752 522.402C472.752 522.402 468.061 513.384 469.367 510.743C470.672 508.101 468.441 503 465.92 502.864C463.4 502.727 461.047 512.413 460.972 515.267C460.896 518.227 461.488 525.787 464.569 528.838C467.514 531.768 473.526 525.605 472.752 522.402Z" fill="#DD9F83" />
    <path d="M576.514 419.55C574.206 424.849 575.679 439.346 582.146 439.316C587.55 439.286 586.047 430.587 584.256 429.691C582.616 428.871 581.463 422.495 582.389 419.247C584.484 411.823 580.688 410.002 576.514 419.566V419.55Z" fill="#BF907B" />
  </g>
  <defs>
    <radialGradient id="paint0_radial_10_550" cx="0" cy="0" r="1" gradientUnits="userSpaceOnUse" gradientTransform="translate(432.5 82.5) scale(432.5 82.5)">
      <stop stop-color="#241723" />
      <stop offset="1" stop-color="#FFFFFA" stop-opacity="0.1" />
    </radialGradient>
    <linearGradient id="paint1_linear_10_737" x1="423.019" y1="178.781" x2="581.963" y2="296.98" gradientUnits="userSpaceOnUse">
      <stop stop-color="#E6A17F" />
      <stop offset="1" stop-color="#F7C19D" />
    </linearGradient>
    <linearGradient id="paint2_linear_10_737" x1="413.326" y1="537.947" x2="373.001" y2="541.364" gradientUnits="userSpaceOnUse">
      <stop stop-color="#F8F5FC" />
      <stop offset="1" stop-color="#D3C7D7" />
    </linearGradient>
    <linearGradient id="paint3_linear_10_737" x1="311.339" y1="451.728" x2="400.572" y2="450.136" gradientUnits="userSpaceOnUse">
      <stop stop-color="#F4AE93" />
      <stop offset="1" stop-color="#FBCDAB" />
    </linearGradient>
    <clipPath id="clip0_10_737">
      <rect width="888" height="709" fill="white" />
    </clipPath>
  </defs>
</svg>