<svg width="888" height="709" viewBox="0 0 888 709" fill="none" xmlns="http://www.w3.org/2000/svg">
<rect width="888" height="709" fill="transparent" />
<path d="M580.568 234.913C577.441 237.919 580.477 238.906 579.991 243.278C578.716 254.709 571.353 268.888 575.057 280.031C579.657 273.791 584.393 267.78 588.265 261.161C588.265 256.257 589.631 237.797 590.253 232.621C587.247 233.182 583.528 234.564 580.583 234.913H580.568Z" fill="#EB8C74"/>
<path d="M556.688 287.652C558.647 287.712 557.493 287.014 556.825 285.678C552.772 277.526 539.807 271.757 546.046 269.602C536.756 261.374 529.393 247.392 522.243 235.794C521.635 234.822 520.907 233.942 521.271 232.757C500.519 229.448 493.293 220.355 499.942 231.771C507.866 245.373 542.099 276.98 556.703 287.652H556.688Z" fill="#FDD5B4"/>
<path d="M521.256 232.757C520.892 233.941 521.635 234.822 522.227 235.794C537.575 236.249 552.529 242.655 567.861 237.98L570.715 239.665L563.671 289.625L556.81 285.693C557.478 287.014 558.631 287.712 556.673 287.667C559.557 289.777 561.637 292.676 565.144 294.195C567.224 293.967 573.524 282.111 575.042 280.046C571.338 268.918 578.701 254.739 579.976 243.293C580.462 238.921 577.425 237.934 580.553 234.928C565.569 236.72 536.406 235.186 521.241 232.773L521.256 232.757Z" fill="#EB8C74"/>
<path d="M567.846 366.562C574.526 373.044 581.509 383.534 587.566 390.684C586.944 384.597 585.411 373.5 587.885 368.945C587.855 368.627 587.991 368.293 587.961 367.959C581.615 364.573 585.881 347.54 582.39 336.914C563.793 355.829 549.007 347.039 567.846 366.562Z" fill="#F8EBF8"/>
<path d="M505.923 186C500.898 233.987 479.554 244.507 477.003 253.419C474.696 261.495 475.303 266.55 480.374 273.442C482.757 276.676 529.484 315.63 531.867 319.562C531.928 319.668 532.945 319.638 534.129 321.201C511.935 334.986 488.587 348.466 462.642 357.271C463.644 370.357 466.878 382.472 468.32 395.254C469.777 394.89 470.901 394.48 472.009 393.539C478.871 387.694 550.798 367.837 582.374 328.519C585.987 324.01 585.912 317.755 588.872 320.564C589.433 314.886 592.136 308.07 592.5 302.514C593.38 289.139 588.234 274.459 588.249 261.176C584.378 267.795 579.642 273.807 575.042 280.046C573.524 282.111 567.209 293.967 565.144 294.195C561.652 292.676 559.573 289.777 556.673 287.667C542.069 276.995 507.836 245.388 499.912 231.786C493.262 220.37 500.488 229.478 521.241 232.772C536.406 235.186 565.569 236.704 580.553 234.928C583.498 234.579 587.217 233.198 590.223 232.636C591.498 222.1 595.005 210.957 597.221 200.483L594.959 198.843C595.4 211.656 582.572 214.859 585.077 204.096C585.638 201.667 588.917 199.708 588.963 199.42C590.177 193.499 588.781 196.278 564.355 194.243C541.447 192.33 528.512 190.463 505.908 186.015L505.923 186Z" fill="#F8EBF8"/>
<path d="M491.076 230.662L489.194 232.013L494.568 240.302C532.065 276.417 504.542 249.76 491.076 230.662Z" fill="#E37460"/>
<path d="M587.065 192.831C579.52 193.606 572.021 194.243 564.37 194.213C588.811 196.247 590.193 193.469 588.978 199.39C588.917 199.678 585.653 201.636 585.092 204.065C582.587 214.829 595.415 211.641 594.975 198.813L597.236 200.452C597.844 197.553 598.39 194.562 599.043 191.678C595.05 191.905 591.043 192.422 587.065 192.816V192.831Z" fill="#F7E3E4"/>
<path d="M584.059 210.426C555.367 214.798 526.751 211.231 497.817 210.851C525.507 215.056 558.085 219.216 584.059 210.426Z" fill="#EB8C74"/>
<path d="M498.94 220.324C482.028 218.427 514.06 227.52 537.029 228.416C527.693 226.108 507.563 221.296 498.94 220.324Z" fill="#E37460"/>
<path d="M544.938 208.695L504.01 207.329L544.802 210.669L544.938 208.695Z" fill="#E37460"/>
<path d="M472.024 393.523L473.208 393.599C483.638 390.199 493.854 386.176 503.752 381.879C521.529 374.168 538.547 365.363 554.927 355.768C556.278 355.829 566.146 364.907 567.846 366.562C549.007 347.039 563.808 355.829 582.39 336.914C585.866 347.555 581.615 364.588 587.961 367.959C586.625 355.51 584.727 343.183 584.606 330.629C585.714 328.063 588.72 322.097 588.872 320.533C585.912 317.725 585.987 323.979 582.374 328.488C550.798 367.807 478.871 387.663 472.009 393.508L472.024 393.523Z" fill="#A0212B"/>
<path d="M535.405 302.984C520.861 288.972 505.012 274.323 493.9 258.55L520.163 282.627C513.453 279.773 489.027 246.906 486.37 247.134C478.4 247.817 510.189 283.659 521.226 293.086C525.522 296.927 530.683 299.72 535.405 302.969V302.984Z" fill="#E37460"/>
<path d="M541.447 327.137C525.476 339.646 488.996 355.829 478.279 363.298C460.396 375.777 497.422 358.015 512.572 348.876C522.167 343.077 534.706 335.229 541.431 327.152L541.447 327.137Z" fill="#EB8C74"/>
<path d="M535.405 302.984C535.814 303.379 537.014 309.36 544.498 309.057C541.629 306.916 538.334 305.003 535.405 302.984Z" fill="#E37460"/>
<path d="M522.243 235.793C529.393 247.392 536.756 261.373 546.046 269.601C539.807 271.757 552.756 277.526 556.825 285.678L563.687 289.61L570.731 239.649L567.877 237.964C552.544 242.64 537.591 236.234 522.243 235.778V235.793Z" fill="#FDD5B4"/>
<path d="M452.684 278.437C445.807 304.624 442.907 331.433 444.729 358.501C445.837 374.942 455.856 404.423 449.207 413.714C445.184 472.191 437.032 531.457 456.023 589.266C456.995 592.242 458.862 595.521 460.137 598.451C465.345 610.428 463.918 612.69 479.023 617.564C500.109 618.52 522.167 614.542 521.104 593.79C511.024 609.518 479.903 618.474 473.815 606.815C472.722 604.736 470.825 579.201 469.109 571.869C463.432 547.503 454.05 523.7 453.989 498.606C453.989 494.036 457.633 445.731 464.1 447.385C468.123 462.9 464.661 479.037 467.348 494.598C471.356 517.673 490.439 550.95 521.393 555.231C522.865 547.625 521.15 541.553 521.241 540.384C517.081 540.748 514.91 538.623 511.98 536.771C502.067 533.795 495.873 526.675 490.59 519.449C488.784 516.99 487.554 516.777 485.156 512.147C474.772 497.71 471.478 483.167 470.491 466.619C469.595 451.636 471.614 436.683 472.419 421.745C471.69 412.909 469.307 403.998 468.32 395.254C466.878 382.472 463.644 370.357 462.642 357.271C460.745 332.541 459.454 318.681 469.398 294.437C471.189 290.08 475.258 286.3 477.383 282.141C478.324 280.304 478.886 276.114 480.374 273.442C475.303 266.55 474.696 261.495 477.003 253.418C467.546 260.842 459.728 269.343 452.668 278.437H452.684Z" fill="#DFD7E1"/>
<path d="M587.566 390.684C588.098 395.785 589.585 400.643 590.086 405.698C593.517 439.658 597.343 461.579 581.585 493.626C571.991 513.134 553.09 541.78 523.821 537.575C523.169 538.395 521.332 539.245 521.256 540.368C521.18 541.537 522.895 547.61 521.408 555.215C560.969 560.696 581.767 512.648 590.284 488.298C583.923 517.885 565.812 552.999 525.977 558.009L524.975 589.585C522.091 589.964 522.789 591.164 521.119 593.775C522.167 614.542 500.124 618.505 479.038 617.548C494.355 622.497 530.531 625.913 544.862 620.144C549.872 618.125 556.005 611.096 559.436 607.316C562.184 604.28 564.901 601.244 567.224 597.965C623.712 518.113 597.024 449.647 587.915 368.945C585.441 373.5 586.959 384.597 587.597 390.684H587.566Z" fill="#C3B6CA"/>
<path d="M449.207 413.699C455.856 404.408 445.837 374.927 444.729 358.486C442.907 331.433 445.807 304.624 452.684 278.421C448.16 284.251 441.799 289.792 439.507 296.79C428.698 329.961 446.034 379.283 449.207 413.683V413.699Z" fill="#F9F5FB"/>
<path d="M469.398 294.437C459.47 318.681 460.745 332.542 462.642 357.271C488.587 348.466 511.92 334.986 534.129 321.201C532.93 319.638 531.928 319.668 531.867 319.562L491.562 343.457C493.141 336.428 500.686 332.177 502.963 324.966C512.254 295.379 481.846 289.974 479.949 288.259C478.825 287.242 480.404 285.86 478.522 283.219L472.525 301.102C465.451 302.028 474.438 294.225 469.413 294.453L469.398 294.437Z" fill="#FDE4C7"/>
<path d="M477.398 282.125C478.856 282.125 478.415 283.067 478.506 283.188C480.389 285.845 478.81 287.211 479.933 288.228C481.831 289.959 512.238 295.348 502.948 324.936C500.686 332.147 493.141 336.397 491.547 343.426L531.852 319.531C529.469 315.599 482.742 276.645 480.359 273.412C478.871 276.083 478.324 280.258 477.368 282.11L477.398 282.125Z" fill="#FDD5B4"/>
<path d="M521.104 593.775C522.774 591.179 522.076 589.98 524.96 589.585L525.962 558.009C565.812 552.999 583.908 517.901 590.268 488.298C581.752 512.648 560.954 560.696 521.393 555.215C490.439 550.934 471.341 517.658 467.348 494.583C464.646 479.022 468.123 462.9 464.1 447.37C457.633 445.73 453.989 494.036 453.989 498.59C454.035 523.684 463.432 547.488 469.109 571.854C470.81 579.186 472.722 604.72 473.815 606.8C479.903 618.444 511.024 609.487 521.104 593.775Z" fill="url(#paint0_linear_125_1095)"/>
<path d="M469.398 294.437C474.408 294.194 465.436 302.013 472.51 301.087L478.506 283.203C478.415 283.067 478.84 282.126 477.398 282.141C475.273 286.3 471.189 290.08 469.413 294.437H469.398Z" fill="#F8EDED"/>
<path d="M490.606 519.449C495.889 526.66 502.082 533.795 511.996 536.771C506.424 533.234 494.826 524.003 490.606 519.449Z" fill="#EB8C74"/>
<path d="M490.606 519.449C490.287 519.115 485.915 513.179 485.171 512.147C487.585 516.777 488.814 516.99 490.606 519.449Z" fill="#EB8C74"/>
<path d="M468.335 395.253C469.322 404.013 471.705 412.924 472.434 421.744C471.629 436.682 469.61 451.62 470.506 466.619C471.28 466.68 472.571 466.482 472.844 467.272C473.345 468.729 473.117 479.371 479.114 496.89C480.556 496.92 480.525 495.493 481.512 496.556C483.592 498.787 495.889 533.567 523.852 537.59C553.121 541.78 572.021 513.149 581.615 493.641C597.373 461.579 593.547 439.673 590.117 405.713C584.181 406.351 588.614 421.365 588.295 431.794C587.87 445.836 586.23 464.084 581.555 477.322C575.513 494.446 559.269 518.523 540.05 526.857C519.738 535.662 509.931 531.229 496.845 515.441C467.409 479.963 482.378 434.056 474.332 394.692C473.482 394.51 473.026 394.51 473.223 393.629L472.039 393.553C470.931 394.494 469.808 394.904 468.35 395.269L468.335 395.253Z" fill="#EB8C74"/>
<path d="M479.099 496.89C479.721 498.681 484.791 511.403 485.171 512.147C485.915 513.179 490.287 519.115 490.606 519.449C494.826 523.988 506.424 533.218 511.996 536.77C514.925 538.622 517.096 540.748 521.256 540.383C521.332 539.275 523.184 538.41 523.822 537.59C495.858 533.582 483.562 498.788 481.482 496.556C480.495 495.493 480.526 496.92 479.083 496.89H479.099Z" fill="#803E44"/>
<path d="M470.506 466.619C471.493 483.182 474.787 497.725 485.171 512.147C484.791 511.403 479.706 498.681 479.098 496.89C473.117 479.371 473.33 468.729 472.829 467.272C472.555 466.483 471.28 466.665 470.491 466.619H470.506Z" fill="#EB8C74"/>
<path d="M540.035 526.842C559.254 518.523 575.497 494.431 581.539 477.307C580.188 477.034 579.839 475.348 578.017 476.563C575.224 478.43 553.865 516.2 540.035 526.842Z" fill="#F6C1A8"/>
<path d="M503.752 381.894L506.363 387.026L538.501 369.476L540.171 371.07C526.812 381.059 497.877 399.823 479.508 397.015C479.22 396.969 479.599 395.815 474.316 394.677C482.362 434.041 467.409 479.948 496.83 515.426C509.916 531.214 519.723 535.647 540.035 526.842C553.865 516.2 575.239 478.43 578.017 476.563C579.839 475.348 580.188 477.033 581.539 477.307C586.215 464.069 587.855 445.821 588.28 431.779C588.599 421.35 584.166 406.336 590.101 405.698C589.585 400.643 588.098 395.8 587.581 390.684C581.524 383.534 574.541 373.044 567.861 366.562C566.161 364.907 556.294 355.829 554.942 355.768C538.577 365.362 521.56 374.167 503.768 381.879L503.752 381.894Z" fill="url(#paint1_linear_125_1095)"/>
<path d="M503.752 381.895C493.854 386.191 483.638 390.214 473.208 393.614C473.011 394.495 473.482 394.495 474.316 394.677C479.599 395.815 479.22 396.969 479.508 397.015C497.892 399.823 526.827 381.06 540.171 371.071L538.501 369.477L506.363 387.026L503.752 381.895Z" fill="#FDE4C7"/>
<path d="M514.166 394.479C500.504 419.164 477.535 509.839 513.331 525.977C527.419 532.322 507.031 516.671 503.282 507.972C494.325 487.159 502.629 442.224 508.2 420.287C509.369 415.702 512.026 415.885 512.087 415.611C513.908 408.75 513.726 397.455 517.005 396.165L514.151 394.479H514.166Z" fill="#FEF5DF"/>
<defs>
<linearGradient id="paint0_linear_125_1095" x1="474.582" y1="531.67" x2="514.891" y2="535.07" gradientUnits="userSpaceOnUse">
<stop stop-color="#F8F5FC"/>
<stop offset="0.46" stop-color="#D3C7D7"/>
</linearGradient>
<linearGradient id="paint1_linear_125_1095" x1="576.569" y1="445.433" x2="487.319" y2="443.855" gradientUnits="userSpaceOnUse">
<stop stop-color="#F4AE93"/>
<stop offset="1" stop-color="#FBCDAB"/>
</linearGradient>
</defs>
</svg>
